<svg xmlns="http://www.w3.org/2000/svg" version="1.1" xmlns:xlink="http://www.w3.org/1999/xlink" xmlns:svgjs="http://svgjs.com/svgjs" width="1440" height="560" preserveAspectRatio="none" viewBox="0 0 1440 560"><g mask="url(&quot;#SvgjsMask1000&quot;)" fill="none"><path d="M5.32 -34.84L70.27 2.66L70.27 77.66L5.32 115.16L-59.63 77.66L-59.63 2.66zM135.23 -34.84L200.18 2.66L200.18 77.66L135.23 115.16L70.27 77.66L70.27 2.66zM135.23 190.16L200.18 227.66L200.18 302.66L135.23 340.16L70.27 302.66L70.27 227.66zM200.18 302.66L265.13 340.16L265.13 415.16L200.18 452.66L135.23 415.16L135.23 340.16zM135.23 415.16L200.18 452.66L200.18 527.66L135.23 565.16L70.27 527.66L70.27 452.66zM200.18 527.66L265.13 565.16L265.13 640.16L200.18 677.66L135.23 640.16L135.23 565.16zM265.13 -34.84L330.09 2.66L330.09 77.66L265.13 115.16L200.18 77.66L200.18 2.66zM265.13 190.16L330.09 227.66L330.09 302.66L265.13 340.16L200.18 302.66L200.18 227.66zM265.13 415.16L330.09 452.66L330.09 527.66L265.13 565.16L200.18 527.66L200.18 452.66zM330.09 527.66L395.04 565.16L395.04 640.16L330.09 677.66L265.13 640.16L265.13 565.16zM395.04 -34.84L460 2.66L460 77.66L395.04 115.16L330.09 77.66L330.09 2.66zM460 77.66L524.95 115.16L524.95 190.16L460 227.66L395.04 190.16L395.04 115.16zM524.95 -34.84L589.9 2.66L589.9 77.66L524.95 115.16L460 77.66L460 2.66zM524.95 190.16L589.9 227.66L589.9 302.66L524.95 340.16L460 302.66L460 227.66zM589.9 302.66L654.86 340.16L654.86 415.16L589.9 452.66L524.95 415.16L524.95 340.16zM524.95 415.16L589.9 452.66L589.9 527.66L524.95 565.16L460 527.66L460 452.66zM589.9 527.66L654.86 565.16L654.86 640.16L589.9 677.66L524.95 640.16L524.95 565.16zM654.86 -34.84L719.81 2.66L719.81 77.66L654.86 115.16L589.9 77.66L589.9 2.66zM719.81 302.66L784.77 340.16L784.77 415.16L719.81 452.66L654.86 415.16L654.86 340.16zM719.81 527.66L784.77 565.16L784.77 640.16L719.81 677.66L654.86 640.16L654.86 565.16zM784.76 190.16L849.72 227.66L849.72 302.66L784.76 340.16L719.81 302.66L719.81 227.66zM979.63 77.66L1044.58 115.16L1044.58 190.16L979.63 227.66L914.67 190.16L914.67 115.16zM914.67 415.16L979.63 452.66L979.63 527.66L914.67 565.16L849.72 527.66L849.72 452.66zM1044.58 -34.84L1109.53 2.66L1109.53 77.66L1044.58 115.16L979.63 77.66L979.63 2.66zM1044.58 190.16L1109.53 227.66L1109.53 302.66L1044.58 340.16L979.63 302.66L979.63 227.66zM1109.53 302.66L1174.49 340.16L1174.49 415.16L1109.53 452.66L1044.58 415.16L1044.58 340.16zM1239.44 77.66L1304.39 115.16L1304.39 190.16L1239.44 227.66L1174.49 190.16L1174.49 115.16zM1434.3 -34.84L1499.26 2.66L1499.26 77.66L1434.3 115.16L1369.35 77.66L1369.35 2.66zM1434.3 415.16L1499.26 452.66L1499.26 527.66L1434.3 565.16L1369.35 527.66L1369.35 452.66zM1499.26 527.66L1564.21 565.16L1564.21 640.16L1499.26 677.66L1434.3 640.16L1434.3 565.16z" stroke="#03305d" stroke-width="2"></path><path d="M-2.18 -34.84 a7.5 7.5 0 1 0 15 0 a7.5 7.5 0 1 0 -15 0zM62.77 2.66 a7.5 7.5 0 1 0 15 0 a7.5 7.5 0 1 0 -15 0zM62.77 77.66 a7.5 7.5 0 1 0 15 0 a7.5 7.5 0 1 0 -15 0zM-2.18 115.16 a7.5 7.5 0 1 0 15 0 a7.5 7.5 0 1 0 -15 0zM-67.13 77.66 a7.5 7.5 0 1 0 15 0 a7.5 7.5 0 1 0 -15 0zM-67.13 2.66 a7.5 7.5 0 1 0 15 0 a7.5 7.5 0 1 0 -15 0zM127.73 -34.84 a7.5 7.5 0 1 0 15 0 a7.5 7.5 0 1 0 -15 0zM192.68 2.66 a7.5 7.5 0 1 0 15 0 a7.5 7.5 0 1 0 -15 0zM192.68 77.66 a7.5 7.5 0 1 0 15 0 a7.5 7.5 0 1 0 -15 0zM127.73 115.16 a7.5 7.5 0 1 0 15 0 a7.5 7.5 0 1 0 -15 0zM127.73 190.16 a7.5 7.5 0 1 0 15 0 a7.5 7.5 0 1 0 -15 0zM192.68 227.66 a7.5 7.5 0 1 0 15 0 a7.5 7.5 0 1 0 -15 0zM192.68 302.66 a7.5 7.5 0 1 0 15 0 a7.5 7.5 0 1 0 -15 0zM127.73 340.16 a7.5 7.5 0 1 0 15 0 a7.5 7.5 0 1 0 -15 0zM62.77 302.66 a7.5 7.5 0 1 0 15 0 a7.5 7.5 0 1 0 -15 0zM62.77 227.66 a7.5 7.5 0 1 0 15 0 a7.5 7.5 0 1 0 -15 0zM257.63 340.16 a7.5 7.5 0 1 0 15 0 a7.5 7.5 0 1 0 -15 0zM257.63 415.16 a7.5 7.5 0 1 0 15 0 a7.5 7.5 0 1 0 -15 0zM192.68 452.66 a7.5 7.5 0 1 0 15 0 a7.5 7.5 0 1 0 -15 0zM127.73 415.16 a7.5 7.5 0 1 0 15 0 a7.5 7.5 0 1 0 -15 0zM192.68 527.66 a7.5 7.5 0 1 0 15 0 a7.5 7.5 0 1 0 -15 0zM127.73 565.16 a7.5 7.5 0 1 0 15 0 a7.5 7.5 0 1 0 -15 0zM62.77 527.66 a7.5 7.5 0 1 0 15 0 a7.5 7.5 0 1 0 -15 0zM62.77 452.66 a7.5 7.5 0 1 0 15 0 a7.5 7.5 0 1 0 -15 0zM257.63 565.16 a7.5 7.5 0 1 0 15 0 a7.5 7.5 0 1 0 -15 0zM257.63 640.16 a7.5 7.5 0 1 0 15 0 a7.5 7.5 0 1 0 -15 0zM192.68 677.66 a7.5 7.5 0 1 0 15 0 a7.5 7.5 0 1 0 -15 0zM127.73 640.16 a7.5 7.5 0 1 0 15 0 a7.5 7.5 0 1 0 -15 0zM257.63 -34.84 a7.5 7.5 0 1 0 15 0 a7.5 7.5 0 1 0 -15 0zM322.59 2.66 a7.5 7.5 0 1 0 15 0 a7.5 7.5 0 1 0 -15 0zM322.59 77.66 a7.5 7.5 0 1 0 15 0 a7.5 7.5 0 1 0 -15 0zM257.63 115.16 a7.5 7.5 0 1 0 15 0 a7.5 7.5 0 1 0 -15 0zM257.63 190.16 a7.5 7.5 0 1 0 15 0 a7.5 7.5 0 1 0 -15 0zM322.59 227.66 a7.5 7.5 0 1 0 15 0 a7.5 7.5 0 1 0 -15 0zM322.59 302.66 a7.5 7.5 0 1 0 15 0 a7.5 7.5 0 1 0 -15 0zM322.59 452.66 a7.5 7.5 0 1 0 15 0 a7.5 7.5 0 1 0 -15 0zM322.59 527.66 a7.5 7.5 0 1 0 15 0 a7.5 7.5 0 1 0 -15 0zM387.54 565.16 a7.5 7.5 0 1 0 15 0 a7.5 7.5 0 1 0 -15 0zM387.54 640.16 a7.5 7.5 0 1 0 15 0 a7.5 7.5 0 1 0 -15 0zM322.59 677.66 a7.5 7.5 0 1 0 15 0 a7.5 7.5 0 1 0 -15 0zM387.54 -34.84 a7.5 7.5 0 1 0 15 0 a7.5 7.5 0 1 0 -15 0zM452.5 2.66 a7.5 7.5 0 1 0 15 0 a7.5 7.5 0 1 0 -15 0zM452.5 77.66 a7.5 7.5 0 1 0 15 0 a7.5 7.5 0 1 0 -15 0zM387.54 115.16 a7.5 7.5 0 1 0 15 0 a7.5 7.5 0 1 0 -15 0zM517.45 115.16 a7.5 7.5 0 1 0 15 0 a7.5 7.5 0 1 0 -15 0zM517.45 190.16 a7.5 7.5 0 1 0 15 0 a7.5 7.5 0 1 0 -15 0zM452.5 227.66 a7.5 7.5 0 1 0 15 0 a7.5 7.5 0 1 0 -15 0zM387.54 190.16 a7.5 7.5 0 1 0 15 0 a7.5 7.5 0 1 0 -15 0zM517.45 -34.84 a7.5 7.5 0 1 0 15 0 a7.5 7.5 0 1 0 -15 0zM582.4 2.66 a7.5 7.5 0 1 0 15 0 a7.5 7.5 0 1 0 -15 0zM582.4 77.66 a7.5 7.5 0 1 0 15 0 a7.5 7.5 0 1 0 -15 0zM582.4 227.66 a7.5 7.5 0 1 0 15 0 a7.5 7.5 0 1 0 -15 0zM582.4 302.66 a7.5 7.5 0 1 0 15 0 a7.5 7.5 0 1 0 -15 0zM517.45 340.16 a7.5 7.5 0 1 0 15 0 a7.5 7.5 0 1 0 -15 0zM452.5 302.66 a7.5 7.5 0 1 0 15 0 a7.5 7.5 0 1 0 -15 0zM647.36 340.16 a7.5 7.5 0 1 0 15 0 a7.5 7.5 0 1 0 -15 0zM647.36 415.16 a7.5 7.5 0 1 0 15 0 a7.5 7.5 0 1 0 -15 0zM582.4 452.66 a7.5 7.5 0 1 0 15 0 a7.5 7.5 0 1 0 -15 0zM517.45 415.16 a7.5 7.5 0 1 0 15 0 a7.5 7.5 0 1 0 -15 0zM582.4 527.66 a7.5 7.5 0 1 0 15 0 a7.5 7.5 0 1 0 -15 0zM517.45 565.16 a7.5 7.5 0 1 0 15 0 a7.5 7.5 0 1 0 -15 0zM452.5 527.66 a7.5 7.5 0 1 0 15 0 a7.5 7.5 0 1 0 -15 0zM452.5 452.66 a7.5 7.5 0 1 0 15 0 a7.5 7.5 0 1 0 -15 0zM647.36 565.16 a7.5 7.5 0 1 0 15 0 a7.5 7.5 0 1 0 -15 0zM647.36 640.16 a7.5 7.5 0 1 0 15 0 a7.5 7.5 0 1 0 -15 0zM582.4 677.66 a7.5 7.5 0 1 0 15 0 a7.5 7.5 0 1 0 -15 0zM517.45 640.16 a7.5 7.5 0 1 0 15 0 a7.5 7.5 0 1 0 -15 0zM647.36 -34.84 a7.5 7.5 0 1 0 15 0 a7.5 7.5 0 1 0 -15 0zM712.31 2.66 a7.5 7.5 0 1 0 15 0 a7.5 7.5 0 1 0 -15 0zM712.31 77.66 a7.5 7.5 0 1 0 15 0 a7.5 7.5 0 1 0 -15 0zM647.36 115.16 a7.5 7.5 0 1 0 15 0 a7.5 7.5 0 1 0 -15 0zM712.31 302.66 a7.5 7.5 0 1 0 15 0 a7.5 7.5 0 1 0 -15 0zM777.27 340.16 a7.5 7.5 0 1 0 15 0 a7.5 7.5 0 1 0 -15 0zM777.27 415.16 a7.5 7.5 0 1 0 15 0 a7.5 7.5 0 1 0 -15 0zM712.31 452.66 a7.5 7.5 0 1 0 15 0 a7.5 7.5 0 1 0 -15 0zM712.31 527.66 a7.5 7.5 0 1 0 15 0 a7.5 7.5 0 1 0 -15 0zM777.27 565.16 a7.5 7.5 0 1 0 15 0 a7.5 7.5 0 1 0 -15 0zM777.27 640.16 a7.5 7.5 0 1 0 15 0 a7.5 7.5 0 1 0 -15 0zM712.31 677.66 a7.5 7.5 0 1 0 15 0 a7.5 7.5 0 1 0 -15 0zM777.26 190.16 a7.5 7.5 0 1 0 15 0 a7.5 7.5 0 1 0 -15 0zM842.22 227.66 a7.5 7.5 0 1 0 15 0 a7.5 7.5 0 1 0 -15 0zM842.22 302.66 a7.5 7.5 0 1 0 15 0 a7.5 7.5 0 1 0 -15 0zM777.26 340.16 a7.5 7.5 0 1 0 15 0 a7.5 7.5 0 1 0 -15 0zM712.31 227.66 a7.5 7.5 0 1 0 15 0 a7.5 7.5 0 1 0 -15 0zM972.13 77.66 a7.5 7.5 0 1 0 15 0 a7.5 7.5 0 1 0 -15 0zM1037.08 115.16 a7.5 7.5 0 1 0 15 0 a7.5 7.5 0 1 0 -15 0zM1037.08 190.16 a7.5 7.5 0 1 0 15 0 a7.5 7.5 0 1 0 -15 0zM972.13 227.66 a7.5 7.5 0 1 0 15 0 a7.5 7.5 0 1 0 -15 0zM907.17 190.16 a7.5 7.5 0 1 0 15 0 a7.5 7.5 0 1 0 -15 0zM907.17 115.16 a7.5 7.5 0 1 0 15 0 a7.5 7.5 0 1 0 -15 0zM907.17 415.16 a7.5 7.5 0 1 0 15 0 a7.5 7.5 0 1 0 -15 0zM972.13 452.66 a7.5 7.5 0 1 0 15 0 a7.5 7.5 0 1 0 -15 0zM972.13 527.66 a7.5 7.5 0 1 0 15 0 a7.5 7.5 0 1 0 -15 0zM907.17 565.16 a7.5 7.5 0 1 0 15 0 a7.5 7.5 0 1 0 -15 0zM842.22 527.66 a7.5 7.5 0 1 0 15 0 a7.5 7.5 0 1 0 -15 0zM842.22 452.66 a7.5 7.5 0 1 0 15 0 a7.5 7.5 0 1 0 -15 0zM1037.08 -34.84 a7.5 7.5 0 1 0 15 0 a7.5 7.5 0 1 0 -15 0zM1102.03 2.66 a7.5 7.5 0 1 0 15 0 a7.5 7.5 0 1 0 -15 0zM1102.03 77.66 a7.5 7.5 0 1 0 15 0 a7.5 7.5 0 1 0 -15 0zM972.13 2.66 a7.5 7.5 0 1 0 15 0 a7.5 7.5 0 1 0 -15 0zM1102.03 227.66 a7.5 7.5 0 1 0 15 0 a7.5 7.5 0 1 0 -15 0zM1102.03 302.66 a7.5 7.5 0 1 0 15 0 a7.5 7.5 0 1 0 -15 0zM1037.08 340.16 a7.5 7.5 0 1 0 15 0 a7.5 7.5 0 1 0 -15 0zM972.13 302.66 a7.5 7.5 0 1 0 15 0 a7.5 7.5 0 1 0 -15 0zM1166.99 340.16 a7.5 7.5 0 1 0 15 0 a7.5 7.5 0 1 0 -15 0zM1166.99 415.16 a7.5 7.5 0 1 0 15 0 a7.5 7.5 0 1 0 -15 0zM1102.03 452.66 a7.5 7.5 0 1 0 15 0 a7.5 7.5 0 1 0 -15 0zM1037.08 415.16 a7.5 7.5 0 1 0 15 0 a7.5 7.5 0 1 0 -15 0zM1231.94 77.66 a7.5 7.5 0 1 0 15 0 a7.5 7.5 0 1 0 -15 0zM1296.89 115.16 a7.5 7.5 0 1 0 15 0 a7.5 7.5 0 1 0 -15 0zM1296.89 190.16 a7.5 7.5 0 1 0 15 0 a7.5 7.5 0 1 0 -15 0zM1231.94 227.66 a7.5 7.5 0 1 0 15 0 a7.5 7.5 0 1 0 -15 0zM1166.99 190.16 a7.5 7.5 0 1 0 15 0 a7.5 7.5 0 1 0 -15 0zM1166.99 115.16 a7.5 7.5 0 1 0 15 0 a7.5 7.5 0 1 0 -15 0zM1426.8 -34.84 a7.5 7.5 0 1 0 15 0 a7.5 7.5 0 1 0 -15 0zM1491.76 2.66 a7.5 7.5 0 1 0 15 0 a7.5 7.5 0 1 0 -15 0zM1491.76 77.66 a7.5 7.5 0 1 0 15 0 a7.5 7.5 0 1 0 -15 0zM1426.8 115.16 a7.5 7.5 0 1 0 15 0 a7.5 7.5 0 1 0 -15 0zM1361.85 77.66 a7.5 7.5 0 1 0 15 0 a7.5 7.5 0 1 0 -15 0zM1361.85 2.66 a7.5 7.5 0 1 0 15 0 a7.5 7.5 0 1 0 -15 0zM1426.8 415.16 a7.5 7.5 0 1 0 15 0 a7.5 7.5 0 1 0 -15 0zM1491.76 452.66 a7.5 7.5 0 1 0 15 0 a7.5 7.5 0 1 0 -15 0zM1491.76 527.66 a7.5 7.5 0 1 0 15 0 a7.5 7.5 0 1 0 -15 0zM1426.8 565.16 a7.5 7.5 0 1 0 15 0 a7.5 7.5 0 1 0 -15 0zM1361.85 527.66 a7.5 7.5 0 1 0 15 0 a7.5 7.5 0 1 0 -15 0zM1361.85 452.66 a7.5 7.5 0 1 0 15 0 a7.5 7.5 0 1 0 -15 0zM1556.71 565.16 a7.5 7.5 0 1 0 15 0 a7.5 7.5 0 1 0 -15 0zM1556.71 640.16 a7.5 7.5 0 1 0 15 0 a7.5 7.5 0 1 0 -15 0zM1491.76 677.66 a7.5 7.5 0 1 0 15 0 a7.5 7.5 0 1 0 -15 0zM1426.8 640.16 a7.5 7.5 0 1 0 15 0 a7.5 7.5 0 1 0 -15 0z" fill="#03305d"></path><path d="M8.06 -41.31L51.36 -16.31L51.36 33.69L8.06 58.69L-35.24 33.69L-35.24 -16.31zM8.06 408.69L51.36 433.69L51.36 483.69L8.06 508.69L-35.24 483.69L-35.24 433.69zM224.57 483.69L267.88 508.69L267.88 558.69L224.57 583.69L181.27 558.69L181.27 508.69zM311.18 183.69L354.48 208.69L354.48 258.69L311.18 283.69L267.88 258.69L267.88 208.69zM267.88 258.69L311.18 283.69L311.18 333.69L267.88 358.69L224.57 333.69L224.57 283.69zM311.18 333.69L354.48 358.69L354.48 408.69L311.18 433.69L267.88 408.69L267.88 358.69zM397.78 183.69L441.09 208.69L441.09 258.69L397.78 283.69L354.48 258.69L354.48 208.69zM354.48 408.69L397.78 433.69L397.78 483.69L354.48 508.69L311.18 483.69L311.18 433.69zM570.99 33.69L614.29 58.69L614.29 108.69L570.99 133.69L527.69 108.69L527.69 58.69zM570.99 333.69L614.29 358.69L614.29 408.69L570.99 433.69L527.69 408.69L527.69 358.69zM657.6 33.69L700.9 58.69L700.9 108.69L657.6 133.69L614.29 108.69L614.29 58.69zM744.2 33.69L787.5 58.69L787.5 108.69L744.2 133.69L700.9 108.69L700.9 58.69zM700.9 108.69L744.2 133.69L744.2 183.69L700.9 208.69L657.6 183.69L657.6 133.69zM744.2 183.69L787.5 208.69L787.5 258.69L744.2 283.69L700.9 258.69L700.9 208.69zM700.9 258.69L744.2 283.69L744.2 333.69L700.9 358.69L657.6 333.69L657.6 283.69zM700.9 408.69L744.2 433.69L744.2 483.69L700.9 508.69L657.6 483.69L657.6 433.69zM787.5 108.69L830.81 133.69L830.81 183.69L787.5 208.69L744.2 183.69L744.2 133.69zM830.81 183.69L874.11 208.69L874.11 258.69L830.81 283.69L787.5 258.69L787.5 208.69zM830.81 333.69L874.11 358.69L874.11 408.69L830.81 433.69L787.5 408.69L787.5 358.69zM787.5 408.69L830.81 433.69L830.81 483.69L787.5 508.69L744.2 483.69L744.2 433.69zM917.41 483.69L960.72 508.69L960.72 558.69L917.41 583.69L874.11 558.69L874.11 508.69zM960.72 -41.31L1004.02 -16.31L1004.02 33.69L960.72 58.69L917.41 33.69L917.41 -16.31zM1004.02 33.69L1047.32 58.69L1047.32 108.69L1004.02 133.69L960.72 108.69L960.72 58.69zM1047.32 -41.31L1090.62 -16.31L1090.62 33.69L1047.32 58.69L1004.02 33.69L1004.02 -16.31zM1090.62 33.69L1133.92 58.69L1133.92 108.69L1090.62 133.69L1047.32 108.69L1047.32 58.69zM1047.32 108.69L1090.62 133.69L1090.62 183.69L1047.32 208.69L1004.02 183.69L1004.02 133.69zM1090.62 483.69L1133.92 508.69L1133.92 558.69L1090.62 583.69L1047.32 558.69L1047.32 508.69zM1133.92 108.69L1177.23 133.69L1177.23 183.69L1133.92 208.69L1090.62 183.69L1090.62 133.69zM1220.53 -41.31L1263.83 -16.31L1263.83 33.69L1220.53 58.69L1177.23 33.69L1177.23 -16.31zM1263.83 33.69L1307.13 58.69L1307.13 108.69L1263.83 133.69L1220.53 108.69L1220.53 58.69zM1220.53 108.69L1263.83 133.69L1263.83 183.69L1220.53 208.69L1177.23 183.69L1177.23 133.69zM1263.83 183.69L1307.13 208.69L1307.13 258.69L1263.83 283.69L1220.53 258.69L1220.53 208.69zM1307.13 -41.31L1350.44 -16.31L1350.44 33.69L1307.13 58.69L1263.83 33.69L1263.83 -16.31zM1393.74 -41.31L1437.04 -16.31L1437.04 33.69L1393.74 58.69L1350.44 33.69L1350.44 -16.31zM1393.74 108.69L1437.04 133.69L1437.04 183.69L1393.74 208.69L1350.44 183.69L1350.44 133.69zM1393.74 258.69L1437.04 283.69L1437.04 333.69L1393.74 358.69L1350.44 333.69L1350.44 283.69z" stroke="rgba(6, 80, 156, 0.93)" stroke-width="2"></path></g><defs><mask id="SvgjsMask1000"><rect width="1440" height="560" fill="#ffffff"></rect></mask></defs></svg>