<svg xmlns="http://www.w3.org/2000/svg" version="1.1" xmlns:xlink="http://www.w3.org/1999/xlink" xmlns:svgjs="http://svgjs.com/svgjs" width="1440" height="560" preserveAspectRatio="none" viewBox="0 0 1440 560"><g mask="url(&quot;#SvgjsMask1001&quot;)" fill="none"><path d="M228.059,332.045C272.623,333.466,315.494,311.884,338.318,273.582C361.674,234.387,364.618,183.627,338.994,145.876C315.67,111.513,269.585,110.476,228.059,111.142C188.167,111.782,144.477,115.638,123.121,149.338C100.604,184.87,108.393,230.439,129.344,266.917C150.387,303.556,185.828,330.698,228.059,332.045" fill="rgba(28, 83, 142, 0.4)" class="triangle-float3"></path><path d="M1255.8820995035476 173.5552475633952L1186.9137612785262 242.52358578841665 1324.850437728569 311.49192401343805z" fill="rgba(28, 83, 142, 0.4)" class="triangle-float2"></path><path d="M353.518,491.358C390.375,489.923,423.205,470.875,442.9,439.688C464.2,405.96,474.549,364.223,456.162,328.822C436.481,290.93,396.194,268.977,353.518,267.602C308.191,266.141,261.19,282.412,238.738,321.815C216.459,360.913,225.981,409.888,251.208,447.152C273.53,480.125,313.73,492.907,353.518,491.358" fill="rgba(28, 83, 142, 0.4)" class="triangle-float1"></path><path d="M853.424,198.744C895.412,196.479,934.686,177.57,956.246,141.469C978.374,104.417,979.792,58.939,959.743,20.721C938.124,-20.49,899.915,-52.464,853.424,-54.535C803.426,-56.762,754.934,-32.544,729.325,10.456C703.138,54.428,701.239,110.976,729.404,153.708C755.345,193.067,806.353,201.284,853.424,198.744" fill="rgba(28, 83, 142, 0.4)" class="triangle-float2"></path><path d="M822.719,472.116C846.339,472.244,864.58,453.738,876.108,433.122C887.311,413.087,892.046,388.777,880.372,369.012C868.86,349.522,845.354,342.486,822.719,342.732C800.583,342.973,778.355,351.123,767.201,370.244C755.971,389.495,759.661,412.977,770.326,432.547C781.551,453.144,799.262,471.988,822.719,472.116" fill="rgba(28, 83, 142, 0.4)" class="triangle-float1"></path><path d="M1342.9728321164544 36.04458288906363L1339.440807925034-65.099356457834 1189.4909110003975-9.229350497254742z" fill="rgba(28, 83, 142, 0.4)" class="triangle-float2"></path></g><defs><mask id="SvgjsMask1001"><rect width="1440" height="560" fill="#ffffff"></rect></mask><style>
            @keyframes float1 {
                0%{transform: translate(0, 0)}
                50%{transform: translate(-10px, 0)}
                100%{transform: translate(0, 0)}
            }

            .triangle-float1 {
                animation: float1 5s infinite;
            }

            @keyframes float2 {
                0%{transform: translate(0, 0)}
                50%{transform: translate(-5px, -5px)}
                100%{transform: translate(0, 0)}
            }

            .triangle-float2 {
                animation: float2 4s infinite;
            }

            @keyframes float3 {
                0%{transform: translate(0, 0)}
                50%{transform: translate(0, -10px)}
                100%{transform: translate(0, 0)}
            }

            .triangle-float3 {
                animation: float3 6s infinite;
            }
        </style></defs></svg>