<svg xmlns="http://www.w3.org/2000/svg" version="1.1" xmlns:xlink="http://www.w3.org/1999/xlink" xmlns:svgjs="http://svgjs.com/svgjs" width="1440" height="560" preserveAspectRatio="none" viewBox="0 0 1440 560"><g mask="url(&quot;#SvgjsMask1004&quot;)" fill="none"><path d="M-55.57 398.04L-55.57 398.04" stroke="#132e65" stroke-width="1.5"></path><path d="M-55.57 398.04L-99.8 541.45" stroke="#132e65" stroke-width="1.5"></path><path d="M-55.57 398.04L106.66 398.53" stroke="#132e65" stroke-width="1.5"></path><path d="M-55.57 398.04L104.31 543.38" stroke="#132e65" stroke-width="1.5"></path><path d="M-55.57 398.04L246.83 400.24" stroke="#132e65" stroke-width="1.5"></path><path d="M-99.8 541.45L-99.8 541.45" stroke="#132e65" stroke-width="1.5"></path><path d="M-99.8 541.45L-85.54 703.84" stroke="#132e65" stroke-width="1.5"></path><path d="M-99.8 541.45L104.31 543.38" stroke="#132e65" stroke-width="1.5"></path><path d="M-99.8 541.45L65.19 694.57" stroke="#132e65" stroke-width="1.5"></path><path d="M-99.8 541.45L106.66 398.53" stroke="#132e65" stroke-width="1.5"></path><path d="M-99.8 541.45L203.59 649.54" stroke="#132e65" stroke-width="1.5"></path><path d="M-85.54 703.84L-85.54 703.84" stroke="#132e65" stroke-width="1.5"></path><path d="M-85.54 703.84L65.19 694.57" stroke="#132e65" stroke-width="1.5"></path><path d="M-85.54 703.84L104.31 543.38" stroke="#132e65" stroke-width="1.5"></path><path d="M-85.54 703.84L203.59 649.54" stroke="#132e65" stroke-width="1.5"></path><path d="M-85.54 703.84L-55.57 398.04" stroke="#132e65" stroke-width="1.5"></path><path d="M106.66 398.53L106.66 398.53" stroke="#132e65" stroke-width="1.5"></path><path d="M106.66 398.53L246.83 400.24" stroke="#132e65" stroke-width="1.5"></path><path d="M106.66 398.53L104.31 543.38" stroke="#132e65" stroke-width="1.5"></path><path d="M106.66 398.53L234 559.24" stroke="#132e65" stroke-width="1.5"></path><path d="M104.31 543.38L104.31 543.38" stroke="#132e65" stroke-width="1.5"></path><path d="M104.31 543.38L234 559.24" stroke="#132e65" stroke-width="1.5"></path><path d="M104.31 543.38L203.59 649.54" stroke="#132e65" stroke-width="1.5"></path><path d="M104.31 543.38L65.19 694.57" stroke="#132e65" stroke-width="1.5"></path><path d="M65.19 694.57L65.19 694.57" stroke="#132e65" stroke-width="1.5"></path><path d="M65.19 694.57L203.59 649.54" stroke="#132e65" stroke-width="1.5"></path><path d="M65.19 694.57L234 559.24" stroke="#132e65" stroke-width="1.5"></path><path d="M65.19 694.57L106.66 398.53" stroke="#132e65" stroke-width="1.5"></path><path d="M246.83 400.24L246.83 400.24" stroke="#132e65" stroke-width="1.5"></path><path d="M246.83 400.24L403.52 377.99" stroke="#132e65" stroke-width="1.5"></path><path d="M246.83 400.24L234 559.24" stroke="#132e65" stroke-width="1.5"></path><path d="M246.83 400.24L373.72 546.18" stroke="#132e65" stroke-width="1.5"></path><path d="M234 559.24L234 559.24" stroke="#132e65" stroke-width="1.5"></path><path d="M234 559.24L203.59 649.54" stroke="#132e65" stroke-width="1.5"></path><path d="M234 559.24L373.72 546.18" stroke="#132e65" stroke-width="1.5"></path><path d="M203.59 649.54L203.59 649.54" stroke="#132e65" stroke-width="1.5"></path><path d="M403.52 377.99L403.52 377.99" stroke="#132e65" stroke-width="1.5"></path><path d="M403.52 377.99L523.91 377.32" stroke="#132e65" stroke-width="1.5"></path><path d="M403.52 377.99L373.72 546.18" stroke="#132e65" stroke-width="1.5"></path><path d="M403.52 377.99L558.36 538.03" stroke="#132e65" stroke-width="1.5"></path><path d="M403.52 377.99L234 559.24" stroke="#132e65" stroke-width="1.5"></path><path d="M403.52 377.99L494.99 645.22" stroke="#132e65" stroke-width="1.5"></path><path d="M373.72 546.18L373.72 546.18" stroke="#132e65" stroke-width="1.5"></path><path d="M373.72 546.18L372.14 674.09" stroke="#132e65" stroke-width="1.5"></path><path d="M373.72 546.18L494.99 645.22" stroke="#132e65" stroke-width="1.5"></path><path d="M372.14 674.09L372.14 674.09" stroke="#132e65" stroke-width="1.5"></path><path d="M372.14 674.09L494.99 645.22" stroke="#132e65" stroke-width="1.5"></path><path d="M372.14 674.09L203.59 649.54" stroke="#132e65" stroke-width="1.5"></path><path d="M372.14 674.09L234 559.24" stroke="#132e65" stroke-width="1.5"></path><path d="M523.91 377.32L523.91 377.32" stroke="#132e65" stroke-width="1.5"></path><path d="M523.91 377.32L558.36 538.03" stroke="#132e65" stroke-width="1.5"></path><path d="M523.91 377.32L711.97 406.43" stroke="#132e65" stroke-width="1.5"></path><path d="M523.91 377.32L685.69 256.1" stroke="#132e65" stroke-width="1.5"></path><path d="M523.91 377.32L696.81 499.43" stroke="#132e65" stroke-width="1.5"></path><path d="M523.91 377.32L373.72 546.18" stroke="#132e65" stroke-width="1.5"></path><path d="M558.36 538.03L558.36 538.03" stroke="#132e65" stroke-width="1.5"></path><path d="M558.36 538.03L494.99 645.22" stroke="#132e65" stroke-width="1.5"></path><path d="M558.36 538.03L696.81 499.43" stroke="#132e65" stroke-width="1.5"></path><path d="M558.36 538.03L658.64 664.57" stroke="#132e65" stroke-width="1.5"></path><path d="M494.99 645.22L494.99 645.22" stroke="#132e65" stroke-width="1.5"></path><path d="M494.99 645.22L658.64 664.57" stroke="#132e65" stroke-width="1.5"></path><path d="M494.99 645.22L696.81 499.43" stroke="#132e65" stroke-width="1.5"></path><path d="M685.69 256.1L685.69 256.1" stroke="#132e65" stroke-width="1.5"></path><path d="M685.69 256.1L711.97 406.43" stroke="#132e65" stroke-width="1.5"></path><path d="M685.69 256.1L845.23 188.44" stroke="#132e65" stroke-width="1.5"></path><path d="M711.97 406.43L711.97 406.43" stroke="#132e65" stroke-width="1.5"></path><path d="M711.97 406.43L696.81 499.43" stroke="#132e65" stroke-width="1.5"></path><path d="M711.97 406.43L858.58 354.72" stroke="#132e65" stroke-width="1.5"></path><path d="M696.81 499.43L696.81 499.43" stroke="#132e65" stroke-width="1.5"></path><path d="M696.81 499.43L658.64 664.57" stroke="#132e65" stroke-width="1.5"></path><path d="M696.81 499.43L806.99 678.57" stroke="#132e65" stroke-width="1.5"></path><path d="M658.64 664.57L658.64 664.57" stroke="#132e65" stroke-width="1.5"></path><path d="M658.64 664.57L806.99 678.57" stroke="#132e65" stroke-width="1.5"></path><path d="M845.23 188.44L845.23 188.44" stroke="#132e65" stroke-width="1.5"></path><path d="M845.23 188.44L981.18 192.55" stroke="#132e65" stroke-width="1.5"></path><path d="M845.23 188.44L858.58 354.72" stroke="#132e65" stroke-width="1.5"></path><path d="M858.58 354.72L858.58 354.72" stroke="#132e65" stroke-width="1.5"></path><path d="M858.58 354.72L1003.7 375.43" stroke="#132e65" stroke-width="1.5"></path><path d="M858.58 354.72L685.69 256.1" stroke="#132e65" stroke-width="1.5"></path><path d="M806.99 678.57L806.99 678.57" stroke="#132e65" stroke-width="1.5"></path><path d="M806.99 678.57L958.53 690.66" stroke="#132e65" stroke-width="1.5"></path><path d="M806.99 678.57L1008.3 498.24" stroke="#132e65" stroke-width="1.5"></path><path d="M806.99 678.57L558.36 538.03" stroke="#132e65" stroke-width="1.5"></path><path d="M1007.54 104.32L1007.54 104.32" stroke="#132e65" stroke-width="1.5"></path><path d="M1007.54 104.32L981.18 192.55" stroke="#132e65" stroke-width="1.5"></path><path d="M1007.54 104.32L1107.72 53.62" stroke="#132e65" stroke-width="1.5"></path><path d="M1007.54 104.32L1109.89 196.89" stroke="#132e65" stroke-width="1.5"></path><path d="M1007.54 104.32L845.23 188.44" stroke="#132e65" stroke-width="1.5"></path><path d="M1007.54 104.32L1258.7 44.96" stroke="#132e65" stroke-width="1.5"></path><path d="M1007.54 104.32L1101.64 345.78" stroke="#132e65" stroke-width="1.5"></path><path d="M981.18 192.55L981.18 192.55" stroke="#132e65" stroke-width="1.5"></path><path d="M981.18 192.55L1109.89 196.89" stroke="#132e65" stroke-width="1.5"></path><path d="M981.18 192.55L1003.7 375.43" stroke="#132e65" stroke-width="1.5"></path><path d="M981.18 192.55L1107.72 53.62" stroke="#132e65" stroke-width="1.5"></path><path d="M1003.7 375.43L1003.7 375.43" stroke="#132e65" stroke-width="1.5"></path><path d="M1003.7 375.43L1101.64 345.78" stroke="#132e65" stroke-width="1.5"></path><path d="M1003.7 375.43L1008.3 498.24" stroke="#132e65" stroke-width="1.5"></path><path d="M1008.3 498.24L1008.3 498.24" stroke="#132e65" stroke-width="1.5"></path><path d="M1008.3 498.24L1161.2 546.5" stroke="#132e65" stroke-width="1.5"></path><path d="M1008.3 498.24L1101.64 345.78" stroke="#132e65" stroke-width="1.5"></path><path d="M1008.3 498.24L1103.39 657.65" stroke="#132e65" stroke-width="1.5"></path><path d="M1008.3 498.24L958.53 690.66" stroke="#132e65" stroke-width="1.5"></path><path d="M958.53 690.66L958.53 690.66" stroke="#132e65" stroke-width="1.5"></path><path d="M958.53 690.66L1103.39 657.65" stroke="#132e65" stroke-width="1.5"></path><path d="M1107.72 53.62L1107.72 53.62" stroke="#132e65" stroke-width="1.5"></path><path d="M1107.72 53.62L1109.89 196.89" stroke="#132e65" stroke-width="1.5"></path><path d="M1107.72 53.62L1258.7 44.96" stroke="#132e65" stroke-width="1.5"></path><path d="M1107.72 53.62L1257.61 -68.85" stroke="#132e65" stroke-width="1.5"></path><path d="M1107.72 53.62L1304.05 246.69" stroke="#132e65" stroke-width="1.5"></path><path d="M1109.89 196.89L1109.89 196.89" stroke="#132e65" stroke-width="1.5"></path><path d="M1101.64 345.78L1101.64 345.78" stroke="#132e65" stroke-width="1.5"></path><path d="M1101.64 345.78L1248.99 353.23" stroke="#132e65" stroke-width="1.5"></path><path d="M1161.2 546.5L1161.2 546.5" stroke="#132e65" stroke-width="1.5"></path><path d="M1161.2 546.5L1103.39 657.65" stroke="#132e65" stroke-width="1.5"></path><path d="M1161.2 546.5L1298.21 550.79" stroke="#132e65" stroke-width="1.5"></path><path d="M1103.39 657.65L1103.39 657.65" stroke="#132e65" stroke-width="1.5"></path><path d="M1103.39 657.65L1261.81 673.45" stroke="#132e65" stroke-width="1.5"></path><path d="M1103.39 657.65L1298.21 550.79" stroke="#132e65" stroke-width="1.5"></path><path d="M1103.39 657.65L1397.48 683.9" stroke="#132e65" stroke-width="1.5"></path><path d="M1257.61 -68.85L1257.61 -68.85" stroke="#132e65" stroke-width="1.5"></path><path d="M1257.61 -68.85L1258.7 44.96" stroke="#132e65" stroke-width="1.5"></path><path d="M1257.61 -68.85L1423.59 -43.98" stroke="#132e65" stroke-width="1.5"></path><path d="M1258.7 44.96L1258.7 44.96" stroke="#132e65" stroke-width="1.5"></path><path d="M1304.05 246.69L1304.05 246.69" stroke="#132e65" stroke-width="1.5"></path><path d="M1304.05 246.69L1248.99 353.23" stroke="#132e65" stroke-width="1.5"></path><path d="M1304.05 246.69L1429.05 204.2" stroke="#132e65" stroke-width="1.5"></path><path d="M1248.99 353.23L1248.99 353.23" stroke="#132e65" stroke-width="1.5"></path><path d="M1298.21 550.79L1298.21 550.79" stroke="#132e65" stroke-width="1.5"></path><path d="M1298.21 550.79L1261.81 673.45" stroke="#132e65" stroke-width="1.5"></path><path d="M1298.21 550.79L1430.88 529.45" stroke="#132e65" stroke-width="1.5"></path><path d="M1298.21 550.79L1397.48 683.9" stroke="#132e65" stroke-width="1.5"></path><path d="M1261.81 673.45L1261.81 673.45" stroke="#132e65" stroke-width="1.5"></path><path d="M1261.81 673.45L1397.48 683.9" stroke="#132e65" stroke-width="1.5"></path><path d="M1261.81 673.45L1161.2 546.5" stroke="#132e65" stroke-width="1.5"></path><path d="M1423.59 -43.98L1423.59 -43.98" stroke="#132e65" stroke-width="1.5"></path><path d="M1423.59 -43.98L1418.57 70.52" stroke="#132e65" stroke-width="1.5"></path><path d="M1418.57 70.52L1418.57 70.52" stroke="#132e65" stroke-width="1.5"></path><path d="M1418.57 70.52L1551.11 89.25" stroke="#132e65" stroke-width="1.5"></path><path d="M1418.57 70.52L1429.05 204.2" stroke="#132e65" stroke-width="1.5"></path><path d="M1429.05 204.2L1429.05 204.2" stroke="#132e65" stroke-width="1.5"></path><path d="M1429.05 204.2L1442.34 348.03" stroke="#132e65" stroke-width="1.5"></path><path d="M1429.05 204.2L1593.08 225.67" stroke="#132e65" stroke-width="1.5"></path><path d="M1429.05 204.2L1551.11 89.25" stroke="#132e65" stroke-width="1.5"></path><path d="M1442.34 348.03L1442.34 348.03" stroke="#132e65" stroke-width="1.5"></path><path d="M1442.34 348.03L1585.27 388.49" stroke="#132e65" stroke-width="1.5"></path><path d="M1442.34 348.03L1304.05 246.69" stroke="#132e65" stroke-width="1.5"></path><path d="M1442.34 348.03L1430.88 529.45" stroke="#132e65" stroke-width="1.5"></path><path d="M1442.34 348.03L1248.99 353.23" stroke="#132e65" stroke-width="1.5"></path><path d="M1430.88 529.45L1430.88 529.45" stroke="#132e65" stroke-width="1.5"></path><path d="M1430.88 529.45L1397.48 683.9" stroke="#132e65" stroke-width="1.5"></path><path d="M1430.88 529.45L1601.28 502.91" stroke="#132e65" stroke-width="1.5"></path><path d="M1430.88 529.45L1585.27 388.49" stroke="#132e65" stroke-width="1.5"></path><path d="M1430.88 529.45L1261.81 673.45" stroke="#132e65" stroke-width="1.5"></path><path d="M1397.48 683.9L1397.48 683.9" stroke="#132e65" stroke-width="1.5"></path><path d="M1397.48 683.9L1576.83 703.13" stroke="#132e65" stroke-width="1.5"></path><path d="M1591.81 -106.92L1591.81 -106.92" stroke="#132e65" stroke-width="1.5"></path><path d="M1591.81 -106.92L1423.59 -43.98" stroke="#132e65" stroke-width="1.5"></path><path d="M1591.81 -106.92L1551.11 89.25" stroke="#132e65" stroke-width="1.5"></path><path d="M1551.11 89.25L1551.11 89.25" stroke="#132e65" stroke-width="1.5"></path><path d="M1551.11 89.25L1593.08 225.67" stroke="#132e65" stroke-width="1.5"></path><path d="M1551.11 89.25L1423.59 -43.98" stroke="#132e65" stroke-width="1.5"></path><path d="M1551.11 89.25L1442.34 348.03" stroke="#132e65" stroke-width="1.5"></path><path d="M1593.08 225.67L1593.08 225.67" stroke="#132e65" stroke-width="1.5"></path><path d="M1593.08 225.67L1585.27 388.49" stroke="#132e65" stroke-width="1.5"></path><path d="M1593.08 225.67L1442.34 348.03" stroke="#132e65" stroke-width="1.5"></path><path d="M1593.08 225.67L1418.57 70.52" stroke="#132e65" stroke-width="1.5"></path><path d="M1593.08 225.67L1601.28 502.91" stroke="#132e65" stroke-width="1.5"></path><path d="M1585.27 388.49L1585.27 388.49" stroke="#132e65" stroke-width="1.5"></path><path d="M1585.27 388.49L1601.28 502.91" stroke="#132e65" stroke-width="1.5"></path><path d="M1601.28 502.91L1601.28 502.91" stroke="#132e65" stroke-width="1.5"></path><path d="M1601.28 502.91L1576.83 703.13" stroke="#132e65" stroke-width="1.5"></path><path d="M1576.83 703.13L1576.83 703.13" stroke="#132e65" stroke-width="1.5"></path><path d="M1576.83 703.13L1430.88 529.45" stroke="#132e65" stroke-width="1.5"></path><path d="M1576.83 703.13L1585.27 388.49" stroke="#132e65" stroke-width="1.5"></path><path d="M1576.83 703.13L1261.81 673.45" stroke="#132e65" stroke-width="1.5"></path><circle r="5" cx="-55.57" cy="398.04" fill="#132e65"></circle><circle r="5" cx="-99.8" cy="541.45" fill="#132e65"></circle><circle r="5" cx="-85.54" cy="703.84" fill="#132e65"></circle><circle r="5" cx="106.66" cy="398.53" fill="#132e65"></circle><circle r="5" cx="104.31" cy="543.38" fill="#132e65"></circle><circle r="5" cx="65.19" cy="694.57" fill="#132e65"></circle><circle r="5" cx="246.83" cy="400.24" fill="#132e65"></circle><circle r="5" cx="234" cy="559.24" fill="#132e65"></circle><circle r="5" cx="203.59" cy="649.54" fill="#132e65"></circle><circle r="5" cx="403.52" cy="377.99" fill="#132e65"></circle><circle r="5" cx="373.72" cy="546.18" fill="#132e65"></circle><circle r="5" cx="372.14" cy="674.09" fill="#132e65"></circle><circle r="5" cx="523.91" cy="377.32" fill="#132e65"></circle><circle r="5" cx="558.36" cy="538.03" fill="#132e65"></circle><circle r="5" cx="494.99" cy="645.22" fill="#132e65"></circle><circle r="5" cx="685.69" cy="256.1" fill="#132e65"></circle><circle r="5" cx="711.97" cy="406.43" fill="#132e65"></circle><circle r="5" cx="696.81" cy="499.43" fill="#132e65"></circle><circle r="5" cx="658.64" cy="664.57" fill="#132e65"></circle><circle r="5" cx="845.23" cy="188.44" fill="#132e65"></circle><circle r="5" cx="858.58" cy="354.72" fill="#132e65"></circle><circle r="5" cx="806.99" cy="678.57" fill="#132e65"></circle><circle r="5" cx="1007.54" cy="104.32" fill="#132e65"></circle><circle r="5" cx="981.18" cy="192.55" fill="#132e65"></circle><circle r="5" cx="1003.7" cy="375.43" fill="#132e65"></circle><circle r="5" cx="1008.3" cy="498.24" fill="#132e65"></circle><circle r="5" cx="958.53" cy="690.66" fill="#132e65"></circle><circle r="5" cx="1107.72" cy="53.62" fill="#132e65"></circle><circle r="5" cx="1109.89" cy="196.89" fill="#132e65"></circle><circle r="5" cx="1101.64" cy="345.78" fill="#132e65"></circle><circle r="5" cx="1161.2" cy="546.5" fill="#132e65"></circle><circle r="5" cx="1103.39" cy="657.65" fill="#132e65"></circle><circle r="5" cx="1257.61" cy="-68.85" fill="#132e65"></circle><circle r="5" cx="1258.7" cy="44.96" fill="#132e65"></circle><circle r="5" cx="1304.05" cy="246.69" fill="#132e65"></circle><circle r="5" cx="1248.99" cy="353.23" fill="#132e65"></circle><circle r="5" cx="1298.21" cy="550.79" fill="#132e65"></circle><circle r="5" cx="1261.81" cy="673.45" fill="#132e65"></circle><circle r="5" cx="1423.59" cy="-43.98" fill="#132e65"></circle><circle r="5" cx="1418.57" cy="70.52" fill="#132e65"></circle><circle r="5" cx="1429.05" cy="204.2" fill="#132e65"></circle><circle r="5" cx="1442.34" cy="348.03" fill="#132e65"></circle><circle r="5" cx="1430.88" cy="529.45" fill="#132e65"></circle><circle r="5" cx="1397.48" cy="683.9" fill="#132e65"></circle><circle r="5" cx="1591.81" cy="-106.92" fill="#132e65"></circle><circle r="5" cx="1551.11" cy="89.25" fill="#132e65"></circle><circle r="5" cx="1593.08" cy="225.67" fill="#132e65"></circle><circle r="5" cx="1585.27" cy="388.49" fill="#132e65"></circle><circle r="5" cx="1601.28" cy="502.91" fill="#132e65"></circle><circle r="5" cx="1576.83" cy="703.13" fill="#132e65"></circle><path d="M219.44 704.7L219.44 704.7" stroke="hsl(0, 0%, 100%)" stroke-width="1.5"></path><path d="M219.44 704.7L106.03 652.58" stroke="hsl(0, 0%, 100%)" stroke-width="1.5"></path><path d="M219.44 704.7L390.77 673.62" stroke="hsl(0, 0%, 100%)" stroke-width="1.5"></path><path d="M219.44 704.7L60.72 531.45" stroke="hsl(0, 0%, 100%)" stroke-width="1.5"></path><path d="M219.44 704.7L-58.55 659.97" stroke="hsl(0, 0%, 100%)" stroke-width="1.5"></path><path d="M539.04 695.6L539.04 695.6" stroke="hsl(0, 0%, 100%)" stroke-width="1.5"></path><path d="M539.04 695.6L668.29 695.87" stroke="hsl(0, 0%, 100%)" stroke-width="1.5"></path><path d="M539.04 695.6L390.77 673.62" stroke="hsl(0, 0%, 100%)" stroke-width="1.5"></path><path d="M539.04 695.6L649.02 559.8" stroke="hsl(0, 0%, 100%)" stroke-width="1.5"></path><path d="M539.04 695.6L518.56 510.33" stroke="hsl(0, 0%, 100%)" stroke-width="1.5"></path><path d="M539.04 695.6L838.44 703.34" stroke="hsl(0, 0%, 100%)" stroke-width="1.5"></path><path d="M1161.83 -55.93L1161.83 -55.93" stroke="hsl(0, 0%, 100%)" stroke-width="1.5"></path><path d="M1161.83 -55.93L1262.62 -49.07" stroke="hsl(0, 0%, 100%)" stroke-width="1.5"></path><path d="M1161.83 -55.93L1255.46 110.24" stroke="hsl(0, 0%, 100%)" stroke-width="1.5"></path><path d="M1161.83 -55.93L1455.26 -64.4" stroke="hsl(0, 0%, 100%)" stroke-width="1.5"></path><path d="M1161.83 -55.93L1264.41 232.79" stroke="hsl(0, 0%, 100%)" stroke-width="1.5"></path><path d="M1262.62 -49.07L1262.62 -49.07" stroke="hsl(0, 0%, 100%)" stroke-width="1.5"></path><path d="M1262.62 -49.07L1255.46 110.24" stroke="hsl(0, 0%, 100%)" stroke-width="1.5"></path><path d="M1262.62 -49.07L1455.26 -64.4" stroke="hsl(0, 0%, 100%)" stroke-width="1.5"></path><path d="M1255.46 110.24L1255.46 110.24" stroke="hsl(0, 0%, 100%)" stroke-width="1.5"></path><path d="M1255.46 110.24L1264.41 232.79" stroke="hsl(0, 0%, 100%)" stroke-width="1.5"></path><path d="M1455.26 -64.4L1455.26 -64.4" stroke="hsl(0, 0%, 100%)" stroke-width="1.5"></path><path d="M1455.26 -64.4L1461.25 86.89" stroke="hsl(0, 0%, 100%)" stroke-width="1.5"></path><path d="M1455.26 -64.4L1583.96 43.49" stroke="hsl(0, 0%, 100%)" stroke-width="1.5"></path><path d="M1461.25 86.89L1461.25 86.89" stroke="hsl(0, 0%, 100%)" stroke-width="1.5"></path><path d="M1461.25 86.89L1583.96 43.49" stroke="hsl(0, 0%, 100%)" stroke-width="1.5"></path><path d="M1461.25 86.89L1446.31 234.09" stroke="hsl(0, 0%, 100%)" stroke-width="1.5"></path><path d="M1461.25 86.89L1255.46 110.24" stroke="hsl(0, 0%, 100%)" stroke-width="1.5"></path><path d="M1461.25 86.89L1610.95 253.77" stroke="hsl(0, 0%, 100%)" stroke-width="1.5"></path><path d="M1590.6 679.64L1590.6 679.64" stroke="hsl(0, 0%, 100%)" stroke-width="1.5"></path><path d="M1590.6 679.64L1606.09 521.5" stroke="hsl(0, 0%, 100%)" stroke-width="1.5"></path><path d="M1590.6 679.64L1402.91 655.89" stroke="hsl(0, 0%, 100%)" stroke-width="1.5"></path><path d="M1590.6 679.64L1308.03 663.72" stroke="hsl(0, 0%, 100%)" stroke-width="1.5"></path><path d="M-76.41 559.56L-76.41 559.56" stroke="hsl(0, 0%, 100%)" stroke-width="1.5"></path><path d="M-76.41 559.56L-58.55 659.97" stroke="hsl(0, 0%, 100%)" stroke-width="1.5"></path><path d="M-76.41 559.56L60.72 531.45" stroke="hsl(0, 0%, 100%)" stroke-width="1.5"></path><path d="M-76.41 559.56L106.03 652.58" stroke="hsl(0, 0%, 100%)" stroke-width="1.5"></path><path d="M-76.41 559.56L219.44 704.7" stroke="hsl(0, 0%, 100%)" stroke-width="1.5"></path><path d="M-76.41 559.56L390.77 673.62" stroke="hsl(0, 0%, 100%)" stroke-width="1.5"></path><path d="M-58.55 659.97L-58.55 659.97" stroke="hsl(0, 0%, 100%)" stroke-width="1.5"></path><path d="M-58.55 659.97L106.03 652.58" stroke="hsl(0, 0%, 100%)" stroke-width="1.5"></path><path d="M-58.55 659.97L60.72 531.45" stroke="hsl(0, 0%, 100%)" stroke-width="1.5"></path><path d="M60.72 531.45L60.72 531.45" stroke="hsl(0, 0%, 100%)" stroke-width="1.5"></path><path d="M60.72 531.45L106.03 652.58" stroke="hsl(0, 0%, 100%)" stroke-width="1.5"></path><path d="M106.03 652.58L106.03 652.58" stroke="hsl(0, 0%, 100%)" stroke-width="1.5"></path><path d="M390.77 673.62L390.77 673.62" stroke="hsl(0, 0%, 100%)" stroke-width="1.5"></path><path d="M390.77 673.62L518.56 510.33" stroke="hsl(0, 0%, 100%)" stroke-width="1.5"></path><path d="M518.56 510.33L518.56 510.33" stroke="hsl(0, 0%, 100%)" stroke-width="1.5"></path><path d="M518.56 510.33L649.02 559.8" stroke="hsl(0, 0%, 100%)" stroke-width="1.5"></path><path d="M518.56 510.33L702.41 398.4" stroke="hsl(0, 0%, 100%)" stroke-width="1.5"></path><path d="M702.41 398.4L702.41 398.4" stroke="hsl(0, 0%, 100%)" stroke-width="1.5"></path><path d="M702.41 398.4L788.28 357.49" stroke="hsl(0, 0%, 100%)" stroke-width="1.5"></path><path d="M702.41 398.4L823.43 493.18" stroke="hsl(0, 0%, 100%)" stroke-width="1.5"></path><path d="M702.41 398.4L649.02 559.8" stroke="hsl(0, 0%, 100%)" stroke-width="1.5"></path><path d="M702.41 398.4L997.43 394.08" stroke="hsl(0, 0%, 100%)" stroke-width="1.5"></path><path d="M702.41 398.4L668.29 695.87" stroke="hsl(0, 0%, 100%)" stroke-width="1.5"></path><path d="M649.02 559.8L649.02 559.8" stroke="hsl(0, 0%, 100%)" stroke-width="1.5"></path><path d="M649.02 559.8L668.29 695.87" stroke="hsl(0, 0%, 100%)" stroke-width="1.5"></path><path d="M649.02 559.8L823.43 493.18" stroke="hsl(0, 0%, 100%)" stroke-width="1.5"></path><path d="M649.02 559.8L838.44 703.34" stroke="hsl(0, 0%, 100%)" stroke-width="1.5"></path><path d="M668.29 695.87L668.29 695.87" stroke="hsl(0, 0%, 100%)" stroke-width="1.5"></path><path d="M668.29 695.87L838.44 703.34" stroke="hsl(0, 0%, 100%)" stroke-width="1.5"></path><path d="M668.29 695.87L518.56 510.33" stroke="hsl(0, 0%, 100%)" stroke-width="1.5"></path><path d="M788.28 357.49L788.28 357.49" stroke="hsl(0, 0%, 100%)" stroke-width="1.5"></path><path d="M788.28 357.49L823.43 493.18" stroke="hsl(0, 0%, 100%)" stroke-width="1.5"></path><path d="M823.43 493.18L823.43 493.18" stroke="hsl(0, 0%, 100%)" stroke-width="1.5"></path><path d="M823.43 493.18L974.2 531.11" stroke="hsl(0, 0%, 100%)" stroke-width="1.5"></path><path d="M838.44 703.34L838.44 703.34" stroke="hsl(0, 0%, 100%)" stroke-width="1.5"></path><path d="M838.44 703.34L991.1 661.18" stroke="hsl(0, 0%, 100%)" stroke-width="1.5"></path><path d="M838.44 703.34L823.43 493.18" stroke="hsl(0, 0%, 100%)" stroke-width="1.5"></path><path d="M838.44 703.34L974.2 531.11" stroke="hsl(0, 0%, 100%)" stroke-width="1.5"></path><path d="M999.7 230.45L999.7 230.45" stroke="hsl(0, 0%, 100%)" stroke-width="1.5"></path><path d="M999.7 230.45L997.43 394.08" stroke="hsl(0, 0%, 100%)" stroke-width="1.5"></path><path d="M999.7 230.45L1156.15 358.54" stroke="hsl(0, 0%, 100%)" stroke-width="1.5"></path><path d="M999.7 230.45L788.28 357.49" stroke="hsl(0, 0%, 100%)" stroke-width="1.5"></path><path d="M999.7 230.45L1264.41 232.79" stroke="hsl(0, 0%, 100%)" stroke-width="1.5"></path><path d="M999.7 230.45L1255.46 110.24" stroke="hsl(0, 0%, 100%)" stroke-width="1.5"></path><path d="M999.7 230.45L1267.79 343.32" stroke="hsl(0, 0%, 100%)" stroke-width="1.5"></path><path d="M997.43 394.08L997.43 394.08" stroke="hsl(0, 0%, 100%)" stroke-width="1.5"></path><path d="M997.43 394.08L974.2 531.11" stroke="hsl(0, 0%, 100%)" stroke-width="1.5"></path><path d="M997.43 394.08L1156.15 358.54" stroke="hsl(0, 0%, 100%)" stroke-width="1.5"></path><path d="M997.43 394.08L1147.71 511" stroke="hsl(0, 0%, 100%)" stroke-width="1.5"></path><path d="M997.43 394.08L823.43 493.18" stroke="hsl(0, 0%, 100%)" stroke-width="1.5"></path><path d="M974.2 531.11L974.2 531.11" stroke="hsl(0, 0%, 100%)" stroke-width="1.5"></path><path d="M974.2 531.11L991.1 661.18" stroke="hsl(0, 0%, 100%)" stroke-width="1.5"></path><path d="M974.2 531.11L1147.71 511" stroke="hsl(0, 0%, 100%)" stroke-width="1.5"></path><path d="M974.2 531.11L1156.15 358.54" stroke="hsl(0, 0%, 100%)" stroke-width="1.5"></path><path d="M991.1 661.18L991.1 661.18" stroke="hsl(0, 0%, 100%)" stroke-width="1.5"></path><path d="M991.1 661.18L1147.71 511" stroke="hsl(0, 0%, 100%)" stroke-width="1.5"></path><path d="M1156.15 358.54L1156.15 358.54" stroke="hsl(0, 0%, 100%)" stroke-width="1.5"></path><path d="M1156.15 358.54L1267.79 343.32" stroke="hsl(0, 0%, 100%)" stroke-width="1.5"></path><path d="M1156.15 358.54L1147.71 511" stroke="hsl(0, 0%, 100%)" stroke-width="1.5"></path><path d="M1156.15 358.54L1264.41 232.79" stroke="hsl(0, 0%, 100%)" stroke-width="1.5"></path><path d="M1147.71 511L1147.71 511" stroke="hsl(0, 0%, 100%)" stroke-width="1.5"></path><path d="M1147.71 511L1242.23 554.16" stroke="hsl(0, 0%, 100%)" stroke-width="1.5"></path><path d="M1264.41 232.79L1264.41 232.79" stroke="hsl(0, 0%, 100%)" stroke-width="1.5"></path><path d="M1264.41 232.79L1267.79 343.32" stroke="hsl(0, 0%, 100%)" stroke-width="1.5"></path><path d="M1264.41 232.79L1446.31 234.09" stroke="hsl(0, 0%, 100%)" stroke-width="1.5"></path><path d="M1264.41 232.79L1397.42 389.48" stroke="hsl(0, 0%, 100%)" stroke-width="1.5"></path><path d="M1267.79 343.32L1267.79 343.32" stroke="hsl(0, 0%, 100%)" stroke-width="1.5"></path><path d="M1242.23 554.16L1242.23 554.16" stroke="hsl(0, 0%, 100%)" stroke-width="1.5"></path><path d="M1242.23 554.16L1308.03 663.72" stroke="hsl(0, 0%, 100%)" stroke-width="1.5"></path><path d="M1242.23 554.16L1402.91 655.89" stroke="hsl(0, 0%, 100%)" stroke-width="1.5"></path><path d="M1242.23 554.16L1267.79 343.32" stroke="hsl(0, 0%, 100%)" stroke-width="1.5"></path><path d="M1242.23 554.16L1156.15 358.54" stroke="hsl(0, 0%, 100%)" stroke-width="1.5"></path><path d="M1242.23 554.16L1397.42 389.48" stroke="hsl(0, 0%, 100%)" stroke-width="1.5"></path><path d="M1308.03 663.72L1308.03 663.72" stroke="hsl(0, 0%, 100%)" stroke-width="1.5"></path><path d="M1308.03 663.72L1402.91 655.89" stroke="hsl(0, 0%, 100%)" stroke-width="1.5"></path><path d="M1308.03 663.72L1147.71 511" stroke="hsl(0, 0%, 100%)" stroke-width="1.5"></path><path d="M1446.31 234.09L1446.31 234.09" stroke="hsl(0, 0%, 100%)" stroke-width="1.5"></path><path d="M1446.31 234.09L1397.42 389.48" stroke="hsl(0, 0%, 100%)" stroke-width="1.5"></path><path d="M1446.31 234.09L1610.95 253.77" stroke="hsl(0, 0%, 100%)" stroke-width="1.5"></path><path d="M1397.42 389.48L1397.42 389.48" stroke="hsl(0, 0%, 100%)" stroke-width="1.5"></path><path d="M1397.42 389.48L1267.79 343.32" stroke="hsl(0, 0%, 100%)" stroke-width="1.5"></path><path d="M1402.91 655.89L1402.91 655.89" stroke="hsl(0, 0%, 100%)" stroke-width="1.5"></path><path d="M1402.91 655.89L1606.09 521.5" stroke="hsl(0, 0%, 100%)" stroke-width="1.5"></path><path d="M1583.96 43.49L1583.96 43.49" stroke="hsl(0, 0%, 100%)" stroke-width="1.5"></path><path d="M1610.95 253.77L1610.95 253.77" stroke="hsl(0, 0%, 100%)" stroke-width="1.5"></path><path d="M1610.95 253.77L1577.9 367.43" stroke="hsl(0, 0%, 100%)" stroke-width="1.5"></path><path d="M1610.95 253.77L1583.96 43.49" stroke="hsl(0, 0%, 100%)" stroke-width="1.5"></path><path d="M1577.9 367.43L1577.9 367.43" stroke="hsl(0, 0%, 100%)" stroke-width="1.5"></path><path d="M1577.9 367.43L1606.09 521.5" stroke="hsl(0, 0%, 100%)" stroke-width="1.5"></path><path d="M1577.9 367.43L1397.42 389.48" stroke="hsl(0, 0%, 100%)" stroke-width="1.5"></path><path d="M1577.9 367.43L1446.31 234.09" stroke="hsl(0, 0%, 100%)" stroke-width="1.5"></path><path d="M1577.9 367.43L1461.25 86.89" stroke="hsl(0, 0%, 100%)" stroke-width="1.5"></path><path d="M1577.9 367.43L1267.79 343.32" stroke="hsl(0, 0%, 100%)" stroke-width="1.5"></path><path d="M1606.09 521.5L1606.09 521.5" stroke="hsl(0, 0%, 100%)" stroke-width="1.5"></path><circle r="25" cx="219.44" cy="704.7" fill="url(#SvgjsRadialGradient1005)"></circle><circle r="25" cx="539.04" cy="695.6" fill="url(#SvgjsRadialGradient1005)"></circle><circle r="25" cx="1161.83" cy="-55.93" fill="url(#SvgjsRadialGradient1005)"></circle><circle r="25" cx="1262.62" cy="-49.07" fill="url(#SvgjsRadialGradient1005)"></circle><circle r="25" cx="1255.46" cy="110.24" fill="url(#SvgjsRadialGradient1005)"></circle><circle r="25" cx="1455.26" cy="-64.4" fill="url(#SvgjsRadialGradient1005)"></circle><circle r="25" cx="1461.25" cy="86.89" fill="url(#SvgjsRadialGradient1005)"></circle><circle r="25" cx="1590.6" cy="679.64" fill="url(#SvgjsRadialGradient1005)"></circle><circle r="5" cx="-76.41" cy="559.56" fill="#ffffff"></circle><circle r="5" cx="-58.55" cy="659.97" fill="#ffffff"></circle><circle r="5" cx="60.72" cy="531.45" fill="#ffffff"></circle><circle r="5" cx="106.03" cy="652.58" fill="#ffffff"></circle><circle r="5" cx="390.77" cy="673.62" fill="#ffffff"></circle><circle r="5" cx="518.56" cy="510.33" fill="#ffffff"></circle><circle r="5" cx="702.41" cy="398.4" fill="#ffffff"></circle><circle r="5" cx="649.02" cy="559.8" fill="#ffffff"></circle><circle r="5" cx="668.29" cy="695.87" fill="#ffffff"></circle><circle r="5" cx="788.28" cy="357.49" fill="#ffffff"></circle><circle r="5" cx="823.43" cy="493.18" fill="#ffffff"></circle><circle r="5" cx="838.44" cy="703.34" fill="#ffffff"></circle><circle r="5" cx="999.7" cy="230.45" fill="#ffffff"></circle><circle r="5" cx="997.43" cy="394.08" fill="#ffffff"></circle><circle r="5" cx="974.2" cy="531.11" fill="#ffffff"></circle><circle r="5" cx="991.1" cy="661.18" fill="#ffffff"></circle><circle r="5" cx="1156.15" cy="358.54" fill="#ffffff"></circle><circle r="5" cx="1147.71" cy="511" fill="#ffffff"></circle><circle r="5" cx="1264.41" cy="232.79" fill="#ffffff"></circle><circle r="5" cx="1267.79" cy="343.32" fill="#ffffff"></circle><circle r="5" cx="1242.23" cy="554.16" fill="#ffffff"></circle><circle r="5" cx="1308.03" cy="663.72" fill="#ffffff"></circle><circle r="5" cx="1446.31" cy="234.09" fill="#ffffff"></circle><circle r="5" cx="1397.42" cy="389.48" fill="#ffffff"></circle><circle r="5" cx="1402.91" cy="655.89" fill="#ffffff"></circle><circle r="5" cx="1583.96" cy="43.49" fill="#ffffff"></circle><circle r="5" cx="1610.95" cy="253.77" fill="#ffffff"></circle><circle r="5" cx="1577.9" cy="367.43" fill="#ffffff"></circle><circle r="5" cx="1606.09" cy="521.5" fill="#ffffff"></circle></g><defs><mask id="SvgjsMask1004"><rect width="1440" height="560" fill="#ffffff"></rect></mask><radialGradient id="SvgjsRadialGradient1005"><stop stop-color="#ffffff" offset="0.1"></stop><stop stop-color="rgba(255, 255, 255, 1)" offset="0.2"></stop><stop stop-color="rgba(255, 255, 255, 0)" offset="1"></stop></radialGradient></defs></svg>