<svg fill="none" height="768" viewBox="0 0 547 768" width="547" xmlns="http://www.w3.org/2000/svg"><g fill="#fff"><path d="m158.278 437.69c-8.173 14.157-29.124 14.819-37.717.615-6.442-10.488-11.734-21.615-17.237-32.603-1.539-2.971-3.255-3.832-6.4999-3.623-10.9525.707-21.9875 1.105-32.9248 1.56-15.7488.671-26.9677-11.014-24.6341-26.33 1.498-9.81 9.1813-17.48 19.6717-18.063 17.6381-1.012 35.4563-1.66 53.0791-2.421 4.252-.148 8.504-.297 12.812-.544 1.874-.089 3.158.392 4.059 2.214 10.094 19.496 20.341 38.951 30.378 58.545 3.464 7.078 3.042 14.124-.987 20.65z"/><path d="m124.651 498.862c-8.173 14.157-29.1241 14.819-37.7168.615-6.4418-10.488-11.7341-21.615-17.2368-32.603-1.5389-2.971-3.2551-3.832-6.5003-3.623-10.9524.707-21.9874 1.105-32.9248 1.56-15.7487.671-26.96766-11.014-24.63409-26.33 1.498-9.81 9.18129-17.48 19.67169-18.063 17.6381-1.012 35.4564-1.66 53.0794-2.42 4.2517-.149 8.5034-.298 12.8115-.545 1.8743-.089 3.1587.392 4.0595 2.214 10.0937 19.496 20.3407 38.951 30.3217 58.643 3.479 6.826 3.056 13.872-.931 20.552z"/><path d="m599.434 692.392c-8.173 14.157-29.124 14.819-37.717.615-6.441-10.488-11.734-21.615-17.236-32.603-1.539-2.971-3.256-3.832-6.501-3.623-10.952.707-21.987 1.105-32.924 1.56-15.749.671-26.968-11.014-24.635-26.33 1.498-9.81 9.182-17.48 19.672-18.063 17.638-1.012 35.456-1.66 53.079-2.421 4.252-.148 8.504-.297 12.812-.544 1.874-.089 3.159.392 4.059 2.214 10.094 19.496 20.341 38.951 30.378 58.545 3.465 7.078 3.042 14.123-.987 20.65z"/><path d="m565.807 753.564c-8.173 14.157-29.124 14.819-37.717.615-6.441-10.488-11.734-21.615-17.236-32.603-1.539-2.971-3.255-3.832-6.501-3.623-10.952.707-21.987 1.105-32.924 1.56-15.749.671-26.968-11.014-24.635-26.33 1.498-9.81 9.182-17.48 19.672-18.063 17.638-1.012 35.457-1.66 53.08-2.421 4.251-.148 8.503-.297 12.811-.544 1.874-.089 3.159.392 4.06 2.214 10.093 19.496 20.34 38.951 30.321 58.643 3.48 6.826 3.057 13.872-.931 20.552z"/><path d="m511.538 335.228c-8.174 14.157-29.124 14.819-37.717.615-6.442-10.488-11.734-21.615-17.237-32.603-1.539-2.971-3.255-3.832-6.5-3.622-10.953.706-21.988 1.104-32.925 1.559-15.749.671-26.968-11.013-24.634-26.329 1.498-9.81 9.181-17.481 19.672-18.064 17.638-1.012 35.456-1.66 53.079-2.42 4.252-.149 8.503-.298 12.812-.545 1.874-.089 3.158.392 4.059 2.214 10.093 19.496 20.341 38.952 30.378 58.546 3.464 7.077 3.041 14.123-.987 20.649z"/><path d="m477.911 396.4c-8.174 14.157-29.124 14.819-37.717.615-6.442-10.488-11.734-21.615-17.237-32.603-1.539-2.971-3.255-3.832-6.5-3.622-10.953.706-21.988 1.104-32.925 1.559-15.749.671-26.968-11.013-24.634-26.329 1.498-9.81 9.181-17.481 19.672-18.064 17.638-1.012 35.456-1.66 53.079-2.42 4.252-.149 8.503-.298 12.812-.545 1.874-.089 3.158.392 4.059 2.214 10.093 19.496 20.341 38.952 30.321 58.643 3.48 6.826 3.057 13.872-.93 20.552z"/><path d="m246.175 794.853c-8.174 14.157-29.125 14.819-37.717.615-6.442-10.489-11.734-21.615-17.237-32.603-1.539-2.971-3.255-3.832-6.5-3.623-10.953.707-21.988 1.105-32.925 1.56-15.749.671-26.968-11.014-24.634-26.33 1.498-9.81 9.181-17.481 19.671-18.063 17.638-1.012 35.457-1.66 53.08-2.421 4.251-.149 8.503-.297 12.811-.544 1.875-.09 3.159.392 4.06 2.214 10.093 19.496 20.341 38.951 30.378 58.545 3.464 7.077 3.041 14.123-.987 20.65z"/><path d="m212.548 856.025c-8.174 14.157-29.125 14.819-37.717.615-6.442-10.489-11.734-21.615-17.237-32.603-1.539-2.971-3.255-3.832-6.5-3.623-10.953.707-21.988 1.105-32.925 1.56-15.749.671-26.9679-11.014-24.6343-26.33 1.498-9.81 9.1813-17.481 19.6713-18.063 17.639-1.012 35.457-1.66 53.08-2.421 4.251-.149 8.503-.297 12.811-.544 1.875-.089 3.159.392 4.06 2.214 10.093 19.496 20.341 38.951 30.321 58.643 3.48 6.825 3.057 13.871-.93 20.552z"/><path d="m423.641-21.9344c-8.173 14.15721-29.124 14.81907-37.717.6152-6.441-10.4886-11.734-21.6153-17.236-32.6031-1.539-2.9714-3.255-3.832-6.501-3.6227-10.952.7063-21.987 1.1047-32.924 1.5594-15.749.671-26.968-11.0135-24.635-26.3293 1.498-9.81 9.182-17.4809 19.672-18.0631 17.638-1.013 35.457-1.66 53.079-2.421 4.252-.149 8.504-.298 12.812-.544 1.874-.09 3.159.391 4.06 2.213 10.093 19.4968 20.34 38.9519 30.377 58.546 3.465 7.0772 3.042 14.1232-.987 20.6496z"/><path d="m390.014 39.2377c-8.173 14.1572-29.124 14.819-37.717.6151-6.441-10.4886-11.734-21.6152-17.236-32.60303-1.539-2.97142-3.255-3.8321-6.501-3.62281-10.952.70636-21.987 1.1047-32.924 1.55941-15.749.67102-26.968-11.01345-24.635-26.32927 1.498-9.81 9.182-17.4808 19.672-18.0634 17.638-1.0122 35.457-1.66 53.08-2.4206 4.251-.1489 8.503-.2977 12.811-.5442 1.874-.0896 3.159.3916 4.06 2.2135 10.093 19.4964 20.34 38.95157 30.321 58.6433 3.48 6.8256 3.057 13.8715-.931 20.552z"/><path d="m70.3817 80.5266c-8.1737 14.1571-29.1244 14.819-37.7171.6152-6.4418-10.4886-11.734-21.6154-17.2367-32.6032-1.5389-2.9714-3.2551-3.832-6.50031-3.6227-10.95247.7064-21.98749 1.1047-32.92479 1.5594-15.7488.671-26.9677-11.0134-24.6341-26.3293 1.498-9.81 9.1813-17.48085 19.6717-18.06342 17.6381-1.0122 35.45635-1.659986 53.0793-2.420547 4.2518-.148876 8.5035-.297782 12.8116-.544294 1.8743-.089544 3.1586.39165 4.0595 2.213551 10.0933 19.49641 20.3407 38.95161 30.3778 58.54561 3.4644 7.0773 3.0415 14.1232-.9869 20.6497z"/><path d="m36.7547 141.699c-8.1736 14.157-29.1243 14.819-37.717029.615-6.441791-10.489-11.734071-21.615-17.236671-32.603-1.539-2.972-3.2552-3.832-6.5004-3.623-10.9524.706-21.9874 1.105-32.9248 1.559-15.7487.671-26.9676-11.0131-24.6341-26.329 1.498-9.81 9.1813-17.4808 19.6718-18.0634 17.638-1.0122 35.4563-1.66 53.07928-2.4206 4.25174-.1488 8.50346-.2977 12.81157-.5442 1.87423-.0895 3.15862.3916 4.05945 2.2135 10.0934 19.4964 20.3408 38.9517 30.3214 58.6437 3.4796 6.825 3.0567 13.871-.9305 20.552z"/></g></svg>